<svg width="18" height="18" viewBox="0 0 18 18" fill="none" xmlns="http://www.w3.org/2000/svg">
<path fill-rule="evenodd" clip-rule="evenodd" d="M6.99951 3.21777C6.99951 2.66549 7.44723 2.21777 7.99951 2.21777H9.99951C10.5518 2.21777 10.9995 2.66549 10.9995 3.21777L10.9995 4.5C10.9995 4.77614 11.2234 5 11.4995 5H15.1245C15.6768 5 16.1245 5.44772 16.1245 6L16.1245 7.21779C16.1245 7.77007 15.6768 8.21779 15.1245 8.21779H2.87451C2.32223 8.21779 1.87451 7.77007 1.87451 7.21779L1.87451 6C1.87451 5.44772 2.32223 5 2.87451 5H6.49951C6.77565 5 6.99951 4.77614 6.99951 4.5L6.99951 3.21777Z" stroke="#565759" stroke-width="1.5" stroke-linecap="round" stroke-linejoin="round"/>
<path d="M3.16937 13.8535C3.07988 14.4575 3.54794 15 4.15857 15H13.8404C14.4511 15 14.9191 14.4575 14.8297 13.8535L13.9995 8.25H3.99951L3.16937 13.8535Z" stroke="#565759" stroke-width="1.5" stroke-linejoin="round"/>
<path d="M7 14.9616V12.7178" stroke="#565759" stroke-width="1.5" stroke-linecap="round" stroke-linejoin="round"/>
<path d="M11 14.9616V12.7178" stroke="#565759" stroke-width="1.5" stroke-linecap="round" stroke-linejoin="round"/>
</svg>
