<svg width="23" height="23" viewBox="0 0 23 23" fill="none" xmlns="http://www.w3.org/2000/svg">
<path fill-rule="evenodd" clip-rule="evenodd" d="M6.50221 10.4137C6.38645 10.5347 6.2356 10.6249 6.06052 10.6665C4.43879 11.0522 3.23335 12.5114 3.23335 14.2501C3.23335 16.2843 4.88244 17.9334 6.91668 17.9334C7.26714 17.9334 7.60467 17.8847 7.92362 17.7943C8.40183 17.6587 8.8994 17.9365 9.03496 18.4147C9.17052 18.8929 8.89275 19.3905 8.41454 19.5261C7.93736 19.6613 7.43468 19.7334 6.91668 19.7334C3.88832 19.7334 1.43335 17.2784 1.43335 14.2501C1.43335 11.8472 2.97811 9.80711 5.12786 9.06538C5.43096 5.81276 8.16815 3.26672 11.5 3.26672C14.8473 3.26672 17.5944 5.8365 17.8762 9.11082C19.9597 9.8878 21.4441 11.8947 21.4441 14.2501C21.4441 17.2784 18.9891 19.7334 15.9607 19.7334C15.4427 19.7334 14.9401 19.6613 14.4629 19.5261C13.9847 19.3905 13.7069 18.8929 13.8425 18.4147C13.978 17.9365 14.4756 17.6587 14.9538 17.7943C15.2728 17.8847 15.6103 17.9334 15.9607 17.9334C17.995 17.9334 19.6441 16.2843 19.6441 14.2501C19.6441 12.5114 18.4387 11.0522 16.8169 10.6665C16.4428 10.5775 16.1793 10.2669 16.1324 9.90697C16.1113 9.83049 16.1 9.74993 16.1 9.66672C16.1 7.12622 14.0405 5.06672 11.5 5.06672C8.95947 5.06672 6.89998 7.12622 6.89998 9.66672C6.89998 9.9778 6.74215 10.252 6.50221 10.4137Z" fill="#133EBF" fill-opacity="0.4"/>
<path d="M8.32166 13.2789L11.5 10.0901L14.7688 13.3334" stroke="#133EBF" stroke-width="1.8" stroke-linecap="round" stroke-linejoin="round"/>
<path d="M11.5 17.9167V11.7117" stroke="#133EBF" stroke-width="1.8" stroke-linecap="round" stroke-linejoin="round"/>
</svg>
