<svg width="38" height="38" viewBox="0 0 38 38" fill="none" xmlns="http://www.w3.org/2000/svg">
<g clip-path="url(#clip0_2853_7974)">
<rect width="38" height="38" rx="19" fill="white"/>
<rect width="38" height="38" fill="#5A78D2"/>
<path d="M11.001 21.0029C11.001 20.4506 11.4487 20.0029 12.001 20.0029H13.501C14.0533 20.0029 14.501 20.4506 14.501 21.0029V21.5029C14.501 22.0552 14.9487 22.5029 15.501 22.5029H22.501C23.0533 22.5029 23.501 22.0552 23.501 21.5029V21.0029C23.501 20.4506 23.9487 20.0029 24.501 20.0029H26.001C26.5533 20.0029 27.001 20.4506 27.001 21.0029V24.0029C27.001 25.6598 25.6578 27.0029 24.001 27.0029H14.001C12.3441 27.0029 11.001 25.6598 11.001 24.0029V21.0029Z" fill="white" stroke="white" stroke-linecap="round"/>
<path fill-rule="evenodd" clip-rule="evenodd" d="M12.001 13.9966C12.001 12.0636 13.568 10.4966 15.501 10.4966H22.501C24.434 10.4966 26.001 12.0636 26.001 13.9966L26.001 18.1937H24.501C23.0559 18.1937 21.8666 19.2883 21.7169 20.6937H16.2851C16.1354 19.2883 14.946 18.1937 13.501 18.1937H12.001V13.9966ZM15.701 14.5C15.701 14.0582 16.0591 13.7 16.501 13.7H21.501C21.9428 13.7 22.301 14.0582 22.301 14.5C22.301 14.9418 21.9428 15.3 21.501 15.3H16.501C16.0591 15.3 15.701 14.9418 15.701 14.5ZM16.501 16.7C16.0591 16.7 15.701 17.0582 15.701 17.5C15.701 17.9418 16.0591 18.3 16.501 18.3H21.501C21.9428 18.3 22.301 17.9418 22.301 17.5C22.301 17.0582 21.9428 16.7 21.501 16.7H16.501Z" fill="white"/>
</g>
<defs>
<clipPath id="clip0_2853_7974">
<rect width="38" height="38" rx="19" fill="white"/>
</clipPath>
</defs>
</svg>
