<svg width="38" height="38" viewBox="0 0 38 38" fill="none" xmlns="http://www.w3.org/2000/svg">
<g clip-path="url(#clip0_2853_7858)">
<rect width="38" height="38" rx="19" fill="white"/>
<rect width="38" height="38" fill="#5A78D2"/>
<path d="M22.999 14.0029V13.0029C22.999 11.8984 22.1036 11.0029 20.999 11.0029H16.999C15.8945 11.0029 14.999 11.8984 14.999 13.0029V14.0029" stroke="white" stroke-width="1.596" stroke-linecap="round"/>
<path fill-rule="evenodd" clip-rule="evenodd" d="M13.9994 13.4033C12.0112 13.4033 10.3994 15.0151 10.3994 17.0033V18.2H16.4992H21.4992H27.5994V17.0033C27.5994 15.0151 25.9876 13.4033 23.9994 13.4033H13.9994ZM27.5994 19.8H22.2992V21C22.2992 21.9941 21.4933 22.8 20.4992 22.8H17.4992C16.5051 22.8 15.6992 21.9941 15.6992 21V19.8H10.3994V24.0033C10.3994 25.9915 12.0112 27.6033 13.9994 27.6033H23.9994C25.9876 27.6033 27.5994 25.9915 27.5994 24.0033V19.8ZM17.2992 19.8V21C17.2992 21.1105 17.3888 21.2 17.4992 21.2H20.4992C20.6097 21.2 20.6992 21.1105 20.6992 21V19.8H17.2992Z" fill="white"/>
</g>
<defs>
<clipPath id="clip0_2853_7858">
<rect width="38" height="38" rx="19" fill="white"/>
</clipPath>
</defs>
</svg>
