<svg width="20" height="20" viewBox="0 0 20 20" fill="none" xmlns="http://www.w3.org/2000/svg">
<path d="M3.33398 11.6693C3.33398 11.209 3.70708 10.8359 4.16732 10.8359H5.41732C5.87755 10.8359 6.25065 11.209 6.25065 11.6693V12.0859C6.25065 12.5462 6.62375 12.9193 7.08398 12.9193H12.9173C13.3776 12.9193 13.7507 12.5462 13.7507 12.0859V11.6693C13.7507 11.209 14.1237 10.8359 14.584 10.8359H15.834C16.2942 10.8359 16.6673 11.209 16.6673 11.6693V14.1693C16.6673 15.55 15.548 16.6693 14.1673 16.6693H5.83398C4.45327 16.6693 3.33398 15.55 3.33398 14.1693V11.6693Z" fill="#03060E" stroke="#03060E" stroke-width="0.833333" stroke-linecap="round"/>
<path fill-rule="evenodd" clip-rule="evenodd" d="M4.16699 5.83073C4.16699 4.2199 5.47283 2.91406 7.08366 2.91406H12.917C14.5278 2.91406 15.8337 4.2199 15.8337 5.83073V9.32812H14.584C13.3798 9.32812 12.3886 10.2403 12.2639 11.4115H7.73742C7.61267 10.2404 6.62153 9.32812 5.41732 9.32812H4.16732H4.16699V5.83073ZM7.25033 6.25C7.25033 5.88181 7.5488 5.58333 7.91699 5.58333H12.0837C12.4518 5.58333 12.7503 5.88181 12.7503 6.25C12.7503 6.61819 12.4518 6.91667 12.0837 6.91667H7.91699C7.5488 6.91667 7.25033 6.61819 7.25033 6.25ZM7.91699 8.08333C7.5488 8.08333 7.25033 8.38181 7.25033 8.75C7.25033 9.11819 7.5488 9.41667 7.91699 9.41667H12.0837C12.4518 9.41667 12.7503 9.11819 12.7503 8.75C12.7503 8.38181 12.4518 8.08333 12.0837 8.08333H7.91699Z" fill="#03060E"/>
</svg>
