<svg width="16" height="17" viewBox="0 0 16 17" fill="none" xmlns="http://www.w3.org/2000/svg">
<path d="M8.00001 13.4995C10.7625 13.4995 13 11.262 13 8.49952C13 5.73702 10.7625 3.49951 8.00001 3.49951C5.23751 3.49951 3 5.73702 3 8.49952C3 11.262 5.23751 13.4995 8.00001 13.4995Z" fill="#03060E" stroke="#03060E" stroke-width="1.25" stroke-miterlimit="2" stroke-linejoin="round"/>
<path d="M7.99976 11C9.38101 11 10.4998 9.88125 10.4998 8.5C10.4998 7.11875 9.38101 6 7.99976 6C6.61851 6 5.49976 7.11875 5.49976 8.5C5.49976 9.88125 6.61851 11 7.99976 11Z" fill="white" stroke="white" stroke-width="1.25" stroke-miterlimit="2" stroke-linejoin="round"/>
<path d="M7.99976 9.125C8.34351 9.125 8.62476 8.84375 8.62476 8.5C8.62476 8.15625 8.34351 7.875 7.99976 7.875C7.65601 7.875 7.37476 8.15625 7.37476 8.5C7.37476 8.84375 7.65601 9.125 7.99976 9.125Z" fill="#03060E"/>
<path d="M8 3.5V2.25" stroke="#03060E" stroke-width="1.25" stroke-miterlimit="2" stroke-linecap="round" stroke-linejoin="round"/>
<path d="M12.3748 14.75L11.1248 12.5625" stroke="#03060E" stroke-width="1.25" stroke-miterlimit="2" stroke-linecap="round" stroke-linejoin="round"/>
<path d="M4.87477 12.5625L3.62476 14.75" stroke="#03060E" stroke-width="1.25" stroke-miterlimit="2" stroke-linecap="round" stroke-linejoin="round"/>
</svg>
