<svg width="20" height="20" viewBox="0 0 20 20" fill="none" xmlns="http://www.w3.org/2000/svg">
<path d="M13.3327 5.83594V5.0026C13.3327 4.08213 12.5865 3.33594 11.666 3.33594H8.33268C7.41221 3.33594 6.66602 4.08213 6.66602 5.0026V5.83594" stroke="#03060E" stroke-width="1.33" stroke-linecap="round"/>
<path fill-rule="evenodd" clip-rule="evenodd" d="M5.83301 5.33594C4.17615 5.33594 2.83301 6.67908 2.83301 8.33594V9.33333L7.91602 9.33333H12.0827L17.1663 9.33333V8.33594C17.1663 6.67908 15.8232 5.33594 14.1663 5.33594H5.83301ZM17.1663 10.6667H12.7493V11.6667C12.7493 12.4951 12.0778 13.1667 11.2493 13.1667H8.74935C7.92092 13.1667 7.24935 12.4951 7.24935 11.6667V10.6667H2.83301V14.1693C2.83301 15.8261 4.17615 17.1693 5.83301 17.1693H14.1663C15.8232 17.1693 17.1663 15.8261 17.1663 14.1693V10.6667ZM8.58268 10.6667V11.6667C8.58268 11.7587 8.6573 11.8333 8.74935 11.8333H11.2493C11.3414 11.8333 11.416 11.7587 11.416 11.6667V10.6667H8.58268Z" fill="#03060E"/>
</svg>
