<svg width="20" height="20" viewBox="0 0 20 20" fill="none" xmlns="http://www.w3.org/2000/svg">
<path d="M15.7964 4.74288C14.7099 4.24595 13.556 3.88378 12.3515 3.68164C12.1999 3.94274 12.0315 4.29649 11.9135 4.57443C10.6325 4.38913 9.36068 4.38913 8.09728 4.57443C7.97936 4.29649 7.80248 3.94274 7.65929 3.68164C6.44646 3.88378 5.29257 4.24595 4.21364 4.74288C2.03219 7.9603 1.44261 11.1019 1.7374 14.2014C3.18608 15.2542 4.58424 15.8944 5.95796 16.3155C6.29487 15.8607 6.59808 15.3721 6.85919 14.8584C6.36225 14.6731 5.89059 14.4457 5.43577 14.1761C5.55368 14.092 5.67161 13.9993 5.7811 13.9067C8.52686 15.1616 11.5009 15.1616 14.2129 13.9067C14.3308 13.9993 14.4403 14.092 14.5583 14.1761C14.1034 14.4457 13.6318 14.6731 13.1348 14.8584C13.3959 15.3721 13.6992 15.8607 14.036 16.3155C15.4089 15.8944 16.8155 15.2542 18.2566 14.2014C18.6187 10.6134 17.683 7.49709 15.7964 4.74288ZM7.23819 12.2895C6.41277 12.2895 5.73897 11.5399 5.73897 10.6219C5.73897 9.7038 6.39593 8.95416 7.23819 8.95416C8.07201 8.95416 8.75422 9.7038 8.73738 10.6219C8.73738 11.5399 8.07201 12.2895 7.23819 12.2895ZM12.7727 12.2895C11.9472 12.2895 11.2726 11.5399 11.2726 10.6219C11.2726 9.7038 11.9304 8.95416 12.7727 8.95416C13.6065 8.95416 14.2887 9.7038 14.2719 10.6219C14.2719 11.5399 13.6149 12.2895 12.7727 12.2895Z" fill="#5D6BE2"/>
</svg>
