<svg width="20" height="20" viewBox="0 0 20 20" fill="none" xmlns="http://www.w3.org/2000/svg">
<path d="M9.99999 2.77539C13.9653 2.77539 17.1771 5.98712 17.1771 9.95245C17.1767 11.4562 16.7047 12.922 15.8276 14.1435C14.9505 15.365 13.7125 16.2807 12.2877 16.7617C11.9288 16.8335 11.7943 16.6092 11.7943 16.4208C11.7943 16.1785 11.8032 15.407 11.8032 14.4471C11.8032 13.7742 11.5789 13.3436 11.3188 13.1193C12.9157 12.9399 14.5933 12.3298 14.5933 9.57565C14.5933 8.78618 14.3152 8.14921 13.8577 7.64682C13.9294 7.46739 14.1806 6.73174 13.7859 5.7449C13.7859 5.7449 13.1848 5.54753 11.8122 6.48055C11.238 6.31906 10.628 6.23832 10.0179 6.23832C9.40789 6.23832 8.79784 6.31906 8.22367 6.48055C6.85106 5.5565 6.24998 5.7449 6.24998 5.7449C5.85524 6.73174 6.10644 7.46739 6.17821 7.64682C5.72067 8.14921 5.44256 8.79515 5.44256 9.57565C5.44256 12.3209 7.11123 12.9399 8.70812 13.1193C8.50178 13.2987 8.31339 13.6127 8.25059 14.0793C7.83791 14.2677 6.8062 14.5727 6.16027 13.4871C6.0257 13.2718 5.62199 12.7425 5.0568 12.7515C4.45572 12.7605 4.81457 13.0924 5.06577 13.227C5.37079 13.3974 5.72067 14.0344 5.80142 14.2407C5.94496 14.6444 6.41147 15.416 8.2147 15.084C8.2147 15.6851 8.22367 16.2503 8.22367 16.4208C8.22367 16.6092 8.0891 16.8245 7.73025 16.7617C6.30079 16.2859 5.05746 15.372 4.17661 14.1498C3.29577 12.9276 2.82215 11.459 2.82294 9.95245C2.82294 5.98712 6.03467 2.77539 9.99999 2.77539Z" fill="#03060E"/>
</svg>
