<svg width="100" height="100" viewBox="0 0 100 100" fill="none" xmlns="http://www.w3.org/2000/svg">
<rect x="0.75" y="0.75" width="98.5" height="98.5" rx="15.9167" fill="white"/>
<rect x="0.75" y="0.75" width="98.5" height="98.5" rx="15.9167" stroke="#EBEBEB" stroke-width="1.5"/>
<g clip-path="url(#clip0_2510_6047)">
<path d="M27.1499 22.6511C30.6678 25.8627 33.4212 29.8978 35.1051 34.4513C36.3082 37.7047 36.9654 41.2228 36.9654 44.8944C36.9654 56.3595 29.9558 66.6138 22.9462 70.0692C38.2959 66.3377 49.7999 54.5694 49.1856 35.6869C61.3583 39.7296 70.1377 51.2086 70.1377 64.7381C70.1377 65.6131 70.101 66.4795 70.029 67.3359C70.7448 64.4822 71.125 61.4953 71.125 58.4197C71.125 41.9099 60.1716 27.9582 45.1353 23.435C41.7983 22.4311 38.2601 21.8916 34.596 21.8916C32.0444 21.8916 29.5539 22.1532 27.1499 22.6511Z" fill="url(#paint0_linear_2510_6047)"/>
<path d="M27.1499 22.6511C30.6678 25.8627 33.4212 29.8978 35.1051 34.4513C36.3082 37.7047 36.9654 41.2228 36.9654 44.8944C36.9654 56.3595 29.9558 66.6138 22.9462 70.0692C38.2959 66.3377 49.7999 54.5694 49.1856 35.6869C61.3583 39.7296 70.1377 51.2086 70.1377 64.7381C70.1377 65.6131 70.101 66.4795 70.029 67.3359C70.7448 64.4822 71.125 61.4953 71.125 58.4197C71.125 41.9099 60.1716 27.9582 45.1353 23.435C41.7983 22.4311 38.2601 21.8916 34.596 21.8916C32.0444 21.8916 29.5539 22.1532 27.1499 22.6511Z" fill="url(#paint1_linear_2510_6047)"/>
<path fill-rule="evenodd" clip-rule="evenodd" d="M69.4999 69.4135C76.9741 64.5596 83.6728 58.6125 89.3695 51.7989C87.5736 51.7385 85.7701 51.708 83.9595 51.708C56.6113 51.708 30.8863 58.6577 8.45435 70.8874C18.4689 66.7967 29.4284 64.5422 40.9145 64.5422C50.9365 64.5422 60.5576 66.2586 69.4999 69.4135ZM55.16 70.2486C62.9961 72.3059 70.4992 74.2757 80.6028 68.2304C66.269 82.0365 58.2575 78.4999 49.5618 74.6613C43.0447 71.7844 36.1433 68.7379 25.9081 72.6954C38.3042 65.8233 46.9164 68.0843 55.16 70.2486Z" fill="white"/>
<path fill-rule="evenodd" clip-rule="evenodd" d="M69.4999 69.4135C76.9741 64.5596 83.6728 58.6125 89.3695 51.7989C87.5736 51.7385 85.7701 51.708 83.9595 51.708C56.6113 51.708 30.8863 58.6577 8.45435 70.8874C18.4689 66.7967 29.4284 64.5422 40.9145 64.5422C50.9365 64.5422 60.5576 66.2586 69.4999 69.4135ZM55.16 70.2486C62.9961 72.3059 70.4992 74.2757 80.6028 68.2304C66.269 82.0365 58.2575 78.4999 49.5618 74.6613C43.0447 71.7844 36.1433 68.7379 25.9081 72.6954C38.3042 65.8233 46.9164 68.0843 55.16 70.2486Z" fill="url(#paint2_linear_2510_6047)"/>
<path fill-rule="evenodd" clip-rule="evenodd" d="M69.4999 69.4135C76.9741 64.5596 83.6728 58.6125 89.3695 51.7989C87.5736 51.7385 85.7701 51.708 83.9595 51.708C56.6113 51.708 30.8863 58.6577 8.45435 70.8874C18.4689 66.7967 29.4284 64.5422 40.9145 64.5422C50.9365 64.5422 60.5576 66.2586 69.4999 69.4135ZM55.16 70.2486C62.9961 72.3059 70.4992 74.2757 80.6028 68.2304C66.269 82.0365 58.2575 78.4999 49.5618 74.6613C43.0447 71.7844 36.1433 68.7379 25.9081 72.6954C38.3042 65.8233 46.9164 68.0843 55.16 70.2486Z" fill="url(#paint3_linear_2510_6047)"/>
<path fill-rule="evenodd" clip-rule="evenodd" d="M69.4999 69.4135C76.9741 64.5596 83.6728 58.6125 89.3695 51.7989C87.5736 51.7385 85.7701 51.708 83.9595 51.708C56.6113 51.708 30.8863 58.6577 8.45435 70.8874C18.4689 66.7967 29.4284 64.5422 40.9145 64.5422C50.9365 64.5422 60.5576 66.2586 69.4999 69.4135ZM55.16 70.2486C62.9961 72.3059 70.4992 74.2757 80.6028 68.2304C66.269 82.0365 58.2575 78.4999 49.5618 74.6613C43.0447 71.7844 36.1433 68.7379 25.9081 72.6954C38.3042 65.8233 46.9164 68.0843 55.16 70.2486Z" fill="#006AFF"/>
<path fill-rule="evenodd" clip-rule="evenodd" d="M69.4999 69.4135C76.9741 64.5596 83.6728 58.6125 89.3695 51.7989C87.5736 51.7385 85.7701 51.708 83.9595 51.708C56.6113 51.708 30.8863 58.6577 8.45435 70.8874C18.4689 66.7967 29.4284 64.5422 40.9145 64.5422C50.9365 64.5422 60.5576 66.2586 69.4999 69.4135ZM55.16 70.2486C62.9961 72.3059 70.4992 74.2757 80.6028 68.2304C66.269 82.0365 58.2575 78.4999 49.5618 74.6613C43.0447 71.7844 36.1433 68.7379 25.9081 72.6954C38.3042 65.8233 46.9164 68.0843 55.16 70.2486Z" fill="url(#paint4_linear_2510_6047)"/>
<path fill-rule="evenodd" clip-rule="evenodd" d="M69.4999 69.4135C76.9741 64.5596 83.6728 58.6125 89.3695 51.7989C87.5736 51.7385 85.7701 51.708 83.9595 51.708C56.6113 51.708 30.8863 58.6577 8.45435 70.8874C18.4689 66.7967 29.4284 64.5422 40.9145 64.5422C50.9365 64.5422 60.5576 66.2586 69.4999 69.4135ZM55.16 70.2486C62.9961 72.3059 70.4992 74.2757 80.6028 68.2304C66.269 82.0365 58.2575 78.4999 49.5618 74.6613C43.0447 71.7844 36.1433 68.7379 25.9081 72.6954C38.3042 65.8233 46.9164 68.0843 55.16 70.2486Z" fill="url(#paint5_linear_2510_6047)"/>
</g>
<defs>
<linearGradient id="paint0_linear_2510_6047" x1="77.3535" y1="21.8916" x2="31.2882" y2="42.5667" gradientUnits="userSpaceOnUse">
<stop stop-color="#D9E6FF"/>
<stop offset="0.180957" stop-color="#0D5EFF"/>
<stop offset="1" stop-color="#121E59"/>
</linearGradient>
<linearGradient id="paint1_linear_2510_6047" x1="24.3262" y1="17.5347" x2="52.1499" y2="68.8891" gradientUnits="userSpaceOnUse">
<stop stop-color="#CBFFFB"/>
<stop offset="0.50289" stop-color="#0D5EFF"/>
<stop offset="1" stop-color="#0D1540"/>
</linearGradient>
<linearGradient id="paint2_linear_2510_6047" x1="34.9371" y1="60.2233" x2="88.3689" y2="77.5427" gradientUnits="userSpaceOnUse">
<stop stop-color="white"/>
<stop offset="1" stop-color="#2D9AFF"/>
</linearGradient>
<linearGradient id="paint3_linear_2510_6047" x1="13.6046" y1="60.6211" x2="83.2991" y2="60.6211" gradientUnits="userSpaceOnUse">
<stop stop-color="#61E3DF"/>
<stop offset="1" stop-color="#1A3AE3"/>
</linearGradient>
<linearGradient id="paint4_linear_2510_6047" x1="-22.1417" y1="28.7184" x2="83.0491" y2="80.8067" gradientUnits="userSpaceOnUse">
<stop stop-color="#D9E6FF"/>
<stop offset="0.50289" stop-color="#0D5EFF"/>
<stop offset="1" stop-color="#121E59"/>
</linearGradient>
<linearGradient id="paint5_linear_2510_6047" x1="14.0562" y1="47.4105" x2="70.0754" y2="80.0872" gradientUnits="userSpaceOnUse">
<stop stop-color="#CBFFFB"/>
<stop offset="0.50289" stop-color="#0D5EFF"/>
<stop offset="1" stop-color="#121E59"/>
</linearGradient>
<clipPath id="clip0_2510_6047">
<rect width="80.9152" height="56.6406" fill="white" transform="translate(8.45422 21.6797)"/>
</clipPath>
</defs>
</svg>
