<svg width="20" height="20" viewBox="0 0 20 20" fill="none" xmlns="http://www.w3.org/2000/svg">
<path d="M12.9736 7.19789C13.1692 7.19789 13.3622 7.2122 13.5532 7.23296C13.0327 4.83433 10.4407 3.05176 7.48236 3.05176C4.17468 3.05176 1.46506 5.28286 1.46506 8.1157C1.46506 9.75064 2.36673 11.0934 3.8729 12.1349L3.27117 13.9265L5.37447 12.8825C6.12756 13.0297 6.73111 13.1815 7.48236 13.1815C7.67109 13.1815 7.85796 13.1723 8.04394 13.1575C7.92626 12.7598 7.85796 12.3426 7.85796 11.9102C7.85798 9.30903 10.1154 7.19789 12.9736 7.19789ZM9.73885 5.58328C10.192 5.58328 10.4919 5.8786 10.4919 6.32668C10.4919 6.77289 10.192 7.07191 9.73885 7.07191C9.28753 7.07191 8.83532 6.77289 8.83532 6.32668C8.83532 5.8786 9.28755 5.58328 9.73885 5.58328ZM5.52766 7.07189C5.07635 7.07189 4.62136 6.77288 4.62136 6.32666C4.62136 5.87858 5.07635 5.58326 5.52766 5.58326C5.97848 5.58326 6.27889 5.87858 6.27889 6.32666C6.27889 6.7729 5.97848 7.07189 5.52766 7.07189ZM18.4658 11.8387C18.4658 9.45807 16.0584 7.51767 13.3548 7.51767C10.4919 7.51767 8.23729 9.45807 8.23729 11.8387C8.23729 14.2228 10.4919 16.159 13.3548 16.159C13.9537 16.159 14.5582 16.0104 15.1599 15.8609L16.8106 16.7552L16.3579 15.2675C17.566 14.3704 18.4658 13.1815 18.4658 11.8387ZM11.6954 11.0934C11.3959 11.0934 11.0937 10.7986 11.0937 10.4977C11.0937 10.201 11.3959 9.90245 11.6954 9.90245C12.1504 9.90245 12.4485 10.201 12.4485 10.4977C12.4485 10.7986 12.1504 11.0934 11.6954 11.0934ZM15.0049 11.0934C14.7078 11.0934 14.4073 10.7986 14.4073 10.4977C14.4073 10.201 14.7078 9.90245 15.0049 9.90245C15.4562 9.90245 15.758 10.201 15.758 10.4977C15.758 10.7986 15.4562 11.0934 15.0049 11.0934Z" fill="#60C439"/>
</svg>
