<svg width="30" height="30" viewBox="0 0 30 30" fill="none" xmlns="http://www.w3.org/2000/svg">
<path d="M19.0146 25C20.0883 25 21.0801 24.4262 21.6153 23.4954L25.6402 16.4954C26.1725 15.5695 26.1725 14.4305 25.6402 13.5046L21.6153 6.50462C21.0801 5.57381 20.0883 5 19.0146 5H10.9857C9.912 5 8.92018 5.57379 8.38497 6.50456L4.35989 13.5046C3.8275 14.4304 3.8275 15.5696 4.35989 16.4954L8.38497 23.4954C8.92018 24.4262 9.912 25 10.9857 25H19.0146Z" stroke="#565759" stroke-width="1.9" stroke-linejoin="round"/>
<path d="M15 18.5C16.933 18.5 18.5 16.933 18.5 15C18.5 13.067 16.933 11.5 15 11.5C13.067 11.5 11.5 13.067 11.5 15C11.5 16.933 13.067 18.5 15 18.5Z" stroke="#565759" stroke-width="1.9" stroke-linejoin="round"/>
</svg>
