<svg width="42" height="42" viewBox="0 0 42 42" fill="none" xmlns="http://www.w3.org/2000/svg">
<path d="M21.0021 20.9994L11.832 15.7051M21.0021 20.9994L29.9509 15.8328M21.0021 20.9994L21.002 30.9993" stroke="#565759" stroke-width="2" stroke-linecap="round"/>
<path d="M19.1256 10.8325C20.2859 10.1627 21.7153 10.1627 22.8756 10.8325L28.8684 14.2925C30.0286 14.9623 30.7434 16.2003 30.7434 17.5401V24.4599C30.7434 25.7997 30.0286 27.0377 28.8684 27.7075L22.8756 31.1675C21.7153 31.8373 20.2859 31.8373 19.1256 31.1675L13.1328 27.7075C11.9726 27.0377 11.2578 25.7997 11.2578 24.4599V17.5401C11.2578 16.2003 11.9726 14.9623 13.1328 14.2925L19.1256 10.8325Z" stroke="#565759" stroke-width="2" stroke-linecap="round"/>
</svg>
