<svg width="42" height="42" viewBox="0 0 42 42" fill="none" xmlns="http://www.w3.org/2000/svg">
<path d="M11 23.5C11 22.8096 11.5596 22.25 12.25 22.25H14.125C14.8154 22.25 15.375 22.8096 15.375 23.5V24.125C15.375 24.8154 15.9346 25.375 16.625 25.375H25.375C26.0654 25.375 26.625 24.8154 26.625 24.125V23.5C26.625 22.8096 27.1846 22.25 27.875 22.25H29.75C30.4404 22.25 31 22.8096 31 23.5V27.25C31 29.3211 29.3211 31 27.25 31H14.75C12.6789 31 11 29.3211 11 27.25V23.5Z" stroke="#565759" stroke-width="2" stroke-linecap="round"/>
<path d="M29.125 22.25V14.75C29.125 12.6789 27.4461 11 25.375 11H16.625C14.5539 11 12.875 12.6789 12.875 14.75V22.25" stroke="#565759" stroke-width="2" stroke-linecap="round"/>
<path d="M17.875 16H24.125" stroke="#565759" stroke-width="2" stroke-linecap="round"/>
<path d="M17.875 19.75H24.125" stroke="#565759" stroke-width="2" stroke-linecap="round"/>
</svg>
