<svg width="752" height="60" viewBox="0 0 752 60" fill="none" xmlns="http://www.w3.org/2000/svg">
<rect width="752" height="60" rx="12" fill="#F9F9F9"/>
<path d="M673.84 24.5V34.0305C673.84 35.2234 674.807 36.1905 676 36.1905V36.1905C677.193 36.1905 678.16 35.2234 678.16 34.0305V24.08C678.16 21.8267 676.333 20 674.08 20V20C671.827 20 670 21.8267 670 24.08V34C670 37.3137 672.686 40 676 40V40C679.314 40 682 37.3137 682 34V24.5" stroke="#AEAFB3" stroke-width="1.6" stroke-linecap="round"/>
<path d="M15.856 27.84L17.12 23.392L18.256 23.584L17.344 26.736H20.144C20.464 25.488 20.72 24.192 20.912 22.816L22.08 22.96C21.872 24.304 21.616 25.552 21.328 26.736H28.816V27.84H21.024C20.832 28.48 20.64 29.088 20.416 29.664H26.96V30.656C26.528 32.032 25.664 33.28 24.352 34.4C25.648 35.168 27.232 35.872 29.088 36.512L28.496 37.584C26.448 36.832 24.752 36.016 23.408 35.136C22.096 36.064 20.464 36.896 18.528 37.648L17.92 36.576C19.712 35.92 21.2 35.2 22.4 34.416C21.152 33.456 20.272 32.416 19.744 31.296C18.576 33.824 17.072 35.824 15.248 37.312L14.656 36.256C16.992 34.208 18.704 31.408 19.824 27.84H15.856ZM20.608 30.72C21.152 31.808 22.064 32.816 23.344 33.744C24.528 32.816 25.344 31.808 25.792 30.72H20.608ZM24.768 22.944C25.92 23.824 26.864 24.704 27.632 25.584L26.816 26.4C26.144 25.552 25.2 24.656 24 23.696L24.768 22.944ZM32.016 23.184C33.12 24.016 34.048 24.832 34.8 25.664L33.968 26.48C33.312 25.696 32.4 24.848 31.232 23.936L32.016 23.184ZM41.376 37.312C40.496 37.312 39.536 37.296 38.512 37.28C37.472 37.264 36.624 37.168 35.984 36.992C35.344 36.8 34.768 36.4 34.272 35.824C34.048 35.552 33.84 35.424 33.648 35.424C33.264 35.424 32.624 36.144 31.744 37.616L30.88 36.848C31.728 35.504 32.48 34.688 33.136 34.4V29.536H30.864V28.48H34.208V34.464C34.336 34.56 34.464 34.672 34.608 34.832C34.992 35.296 35.408 35.632 35.856 35.84C36.368 36.064 37.088 36.192 38.048 36.224C38.896 36.24 39.952 36.256 41.216 36.256C41.952 36.256 42.72 36.24 43.504 36.224C44.272 36.208 44.864 36.192 45.28 36.16L45.008 37.312H41.376ZM35.696 29.232H39.568C39.664 28.544 39.728 27.76 39.76 26.864H36.24V25.808H41.072C41.568 24.88 42 23.888 42.352 22.832L43.44 23.216C43.088 24.192 42.688 25.056 42.24 25.808H44.32V26.864H40.896C40.864 27.76 40.816 28.56 40.72 29.232H44.864V30.32H40.512C40.064 32.256 38.656 33.856 36.288 35.12L35.552 34.192C37.568 33.2 38.832 31.92 39.312 30.32H35.696V29.232ZM37.888 22.96C38.416 23.664 38.912 24.448 39.392 25.296L38.416 25.776C37.936 24.912 37.408 24.128 36.848 23.456L37.888 22.96ZM41.248 31.264C42.576 32.192 43.776 33.2 44.848 34.288L44.048 35.152C42.928 33.968 41.776 32.928 40.56 32.032L41.248 31.264ZM55.536 22.976H56.72V27.344H60.176V35.92C60.176 36.976 59.664 37.504 58.672 37.504H56.8L56.496 36.384L58.288 36.416C58.784 36.416 59.04 36.16 59.04 35.664V34.096H53.264V37.52H52.112V27.344H55.536V22.976ZM53.264 31.28V33.104H59.04V31.28H53.264ZM59.04 30.288V28.448H53.264V30.288H59.04ZM52.352 23.392C52.96 24.224 53.536 25.136 54.096 26.128L53.168 26.576C52.624 25.568 52.032 24.656 51.392 23.856L52.352 23.392ZM59.92 23.312L60.864 23.76C60.384 24.784 59.76 25.76 58.992 26.704L58.08 26.24C58.848 25.248 59.472 24.272 59.92 23.312ZM49.728 31.232L50.736 31.632C49.936 33.68 49.072 35.616 48.112 37.424L47.056 36.96C48.08 35.088 48.96 33.184 49.728 31.232ZM48.16 23.168C49.264 23.968 50.192 24.768 50.944 25.568L50.128 26.384C49.456 25.616 48.528 24.816 47.344 23.952L48.16 23.168ZM47.696 26.928C48.752 27.728 49.616 28.528 50.32 29.328L49.504 30.144C48.864 29.392 48 28.576 46.88 27.712L47.696 26.928ZM65.056 24.112H68.576C68.8 23.696 68.96 23.28 69.072 22.832L70.272 22.992C70.144 23.392 69.984 23.76 69.792 24.112H75.072V31.936H65.056V24.112ZM73.952 30.944V29.6H66.176V30.944H73.952ZM66.176 28.672H73.952V27.36H66.176V28.672ZM66.176 26.432H73.952V25.12H66.176V26.432ZM64.256 33.024L65.344 33.248C64.96 34.72 64.432 35.984 63.744 37.072L62.768 36.448C63.456 35.424 63.952 34.272 64.256 33.024ZM71.968 37.36H67.856C66.928 37.36 66.48 36.896 66.48 36V32.944H67.648V35.76C67.648 36.128 67.824 36.32 68.192 36.32H71.744C72.112 36.32 72.368 36.224 72.496 36.064C72.688 35.84 72.832 35.216 72.896 34.176L74 34.528C73.872 35.872 73.648 36.688 73.328 36.992C73.04 37.232 72.576 37.36 71.968 37.36ZM69.824 32.368C70.688 33.2 71.344 33.936 71.808 34.56L70.928 35.168C70.448 34.48 69.808 33.728 68.976 32.896L69.824 32.368ZM74.992 32.736C76.016 34.016 76.8 35.152 77.344 36.112L76.432 36.752C75.856 35.712 75.072 34.56 74.096 33.296L74.992 32.736ZM80.112 34.096C80.368 34.096 80.608 34.192 80.8 34.384C80.992 34.576 81.088 34.8 81.088 35.088C81.088 35.36 80.992 35.584 80.8 35.776C80.608 35.968 80.368 36.064 80.112 36.064C79.824 36.064 79.6 35.968 79.424 35.776C79.232 35.584 79.136 35.36 79.136 35.088C79.136 34.8 79.232 34.576 79.424 34.384C79.6 34.192 79.824 34.096 80.112 34.096ZM84.3307 34.096C84.5868 34.096 84.8268 34.192 85.0188 34.384C85.2108 34.576 85.3068 34.8 85.3068 35.088C85.3068 35.36 85.2108 35.584 85.0188 35.776C84.8268 35.968 84.5868 36.064 84.3307 36.064C84.0428 36.064 83.8188 35.968 83.6428 35.776C83.4508 35.584 83.3548 35.36 83.3548 35.088C83.3548 34.8 83.4508 34.576 83.6428 34.384C83.8188 34.192 84.0428 34.096 84.3307 34.096ZM88.5495 34.096C88.8055 34.096 89.0455 34.192 89.2375 34.384C89.4295 34.576 89.5255 34.8 89.5255 35.088C89.5255 35.36 89.4295 35.584 89.2375 35.776C89.0455 35.968 88.8055 36.064 88.5495 36.064C88.2615 36.064 88.0375 35.968 87.8615 35.776C87.6695 35.584 87.5735 35.36 87.5735 35.088C87.5735 34.8 87.6695 34.576 87.8615 34.384C88.0375 34.192 88.2615 34.096 88.5495 34.096Z" fill="#AEAFB3"/>
<rect x="706" y="14" width="32" height="32" rx="8" fill="#EBEBEB"/>
<path d="M722.002 37V23M722.002 23L716 29.002M722.002 23L728.002 29.0005" stroke="white" stroke-width="1.6" stroke-linecap="round" stroke-linejoin="round"/>
</svg>
