<svg width="26" height="26" viewBox="0 0 26 26" fill="none" xmlns="http://www.w3.org/2000/svg">
<rect width="26" height="26" fill="white"/>
<path d="M9.3335 9.1437V9.1437C9.3335 7.77558 10.4426 6.6665 11.8107 6.6665H16.6668C18.1396 6.6665 19.3335 7.86041 19.3335 9.33317V14.1719C19.3335 15.5496 18.2166 16.6665 16.8389 16.6665V16.6665" stroke="#565759" stroke-width="1.33333" stroke-linecap="round" stroke-linejoin="round"/>
<path d="M16.5556 11.6649C16.5556 10.4376 15.5607 9.44458 14.3334 9.44458H9.00006C7.77276 9.44458 6.77783 10.4395 6.77783 11.6668V17.0001C6.77783 18.2274 7.77275 19.2224 9.00005 19.2224H14.3334C15.5607 19.2224 16.5556 18.2298 16.5556 17.0025C16.5556 15.4124 16.5556 13.2761 16.5556 11.6649Z" stroke="#565759" stroke-width="1.33333" stroke-linejoin="round"/>
</svg>
