<svg width="16" height="17" viewBox="0 0 16 17" fill="none" xmlns="http://www.w3.org/2000/svg">
<path d="M7.33329 3.17067C6.83329 3.17072 5.35709 3.14612 4.99996 4.83357C4.63896 6.53931 3.28567 8.11601 2.66663 8.50007" stroke="black" stroke-width="1.33333" stroke-linecap="round" stroke-linejoin="round"/>
<path d="M7.33329 13.8333C6.83329 13.8334 5.35709 13.8543 4.99996 12.1668C4.63896 10.4611 3.28567 8.88407 2.66663 8.5" stroke="black" stroke-width="1.33333" stroke-linecap="round" stroke-linejoin="round"/>
<path d="M2.66671 9.83341C3.40309 9.83341 4.00004 9.23646 4.00004 8.50008C4.00004 7.7637 3.40309 7.16675 2.66671 7.16675C1.93033 7.16675 1.33337 7.7637 1.33337 8.50008C1.33337 9.23646 1.93033 9.83341 2.66671 9.83341Z" fill="black"/>
<path d="M2.66663 8.5H7.33329" stroke="black" stroke-width="1.33333" stroke-linecap="round" stroke-linejoin="round"/>
<path d="M10 8.50024H14" stroke="black" stroke-width="1.33333" stroke-linecap="round" stroke-linejoin="round"/>
<path d="M10 3.16699H14" stroke="black" stroke-width="1.33333" stroke-linecap="round" stroke-linejoin="round"/>
<path d="M10 13.8337H14" stroke="black" stroke-width="1.33333" stroke-linecap="round" stroke-linejoin="round"/>
</svg>
