<svg width="60" height="60" viewBox="0 0 60 60" fill="none" xmlns="http://www.w3.org/2000/svg">
<path d="M49.3043 22.6717C48.9513 22.0376 48.2825 21.6445 47.5568 21.6445H12.5189C11.7934 21.6445 11.1249 22.0374 10.7718 22.6711L4.38223 34.1387C3.96762 34.8829 3.75 35.7206 3.75 36.5724V48.2832C3.75 50.4923 5.54086 52.2832 7.75 52.2832H52.3203C54.5295 52.2832 56.3203 50.4923 56.3203 48.2832V36.5715C56.3203 35.7202 56.103 34.8831 55.6889 34.1393L49.3043 22.6717ZM38.7148 35.4258C37.6103 35.4258 36.7449 36.3411 36.419 37.3965C35.5781 40.1202 33.0395 42.0996 30.0352 42.0996C27.0308 42.0996 24.4922 40.1202 23.6513 37.3965C23.3255 36.3411 22.46 35.4258 21.3555 35.4258H6.88477L12.686 24.3599C12.8586 24.0306 13.1998 23.8242 13.5716 23.8242H46.4928C46.8647 23.8242 47.2058 24.0306 47.3785 24.3599L53.1797 35.4258H38.7148ZM29.4258 8.67578C29.4258 8.1235 29.8735 7.67578 30.4258 7.67578H30.7168C31.2691 7.67578 31.7168 8.1235 31.7168 8.67578V14.9141C31.7168 15.4663 31.2691 15.9141 30.7168 15.9141H30.4258C29.8735 15.9141 29.4258 15.4663 29.4258 14.9141V8.67578ZM14.5853 12.4728C14.1948 12.0823 14.1948 11.4492 14.5853 11.0586L14.7911 10.8529C15.1816 10.4624 15.8147 10.4624 16.2053 10.8529L20.6164 15.264C21.0069 15.6545 21.0069 16.2877 20.6164 16.6782L20.4106 16.884C20.0201 17.2745 19.3869 17.2745 18.9964 16.884L14.5853 12.4728ZM39.8212 16.6819C39.4307 16.2914 39.4307 15.6582 39.8212 15.2677L44.2323 10.8566C44.6228 10.4661 45.2559 10.4661 45.6465 10.8566L45.8522 11.0624C46.2428 11.4529 46.2428 12.0861 45.8522 12.4766L41.4412 16.8877C41.0507 17.2782 40.4175 17.2782 40.027 16.8877L39.8212 16.6819Z" fill="#AEAFB3"/>
</svg>
