<svg width="20" height="20" viewBox="0 0 20 20" fill="none" xmlns="http://www.w3.org/2000/svg">
<path d="M15.8334 10.0003C15.8334 8.91227 15.8334 7.53284 15.8334 6.38859C15.8334 5.16129 14.8411 4.16699 13.6138 4.16699C11.5404 4.16699 8.46273 4.16699 6.38894 4.16699C5.16164 4.16699 4.16675 5.16192 4.16675 6.38921C4.16675 8.79662 4.16675 11.204 4.16675 13.6114C4.16675 14.8387 5.16167 15.8337 6.38897 15.8337H9" stroke="#133EBF" stroke-width="1.33333" stroke-linecap="round" stroke-linejoin="round"/>
<path d="M12.5929 15.0002C13.6668 15.0002 14.5373 14.1297 14.5373 13.0558C14.5373 11.9819 13.6668 11.1113 12.5929 11.1113C11.519 11.1113 10.6484 11.9819 10.6484 13.0558C10.6484 14.1297 11.519 15.0002 12.5929 15.0002Z" stroke="#133EBF" stroke-width="1.33333"/>
<path d="M14.2129 14.3516L15.8333 15.6479" stroke="#133EBF" stroke-width="1.33333" stroke-linecap="round" stroke-linejoin="round"/>
<path d="M6.75952 7.40723H13.241" stroke="#133EBF" stroke-width="1.33333" stroke-linecap="round" stroke-linejoin="round"/>
<path d="M6.75952 10H9.35211" stroke="#133EBF" stroke-width="1.33333" stroke-linecap="round" stroke-linejoin="round"/>
</svg>
