<svg width="98" height="39" viewBox="0 0 98 39" fill="none" xmlns="http://www.w3.org/2000/svg">
<rect x="0.5" y="0.5" width="97" height="38" rx="19" fill="white"/>
<rect x="0.5" y="0.5" width="97" height="38" rx="19" stroke="#EBEBEB"/>
<path d="M23.1748 19.5H34.6748" stroke="black" stroke-width="2" stroke-linecap="round" stroke-linejoin="round"/>
<path d="M27.6748 24L23.1748 19.5L27.6748 15" stroke="black" stroke-width="2" stroke-linecap="round" stroke-linejoin="round"/>
<path d="M48.0703 25H43.3438V13.7266H48.0234C50.0703 13.7266 51.3906 14.8281 51.3906 16.5391C51.3906 17.75 50.4922 18.8047 49.3359 18.9922V19.0547C50.8672 19.2031 51.9375 20.3047 51.9375 21.7969C51.9375 23.7812 50.4766 25 48.0703 25ZM45.3594 15.2969V18.4766H47.2031C48.6094 18.4766 49.3984 17.8828 49.3984 16.8359C49.3984 15.8516 48.7188 15.2969 47.5156 15.2969H45.3594ZM45.3594 23.4297H47.6094C49.0938 23.4297 49.8828 22.8125 49.8828 21.6562C49.8828 20.5078 49.0703 19.9062 47.5234 19.9062H45.3594V23.4297ZM55.6172 25.1328C54.0156 25.1328 52.8516 24.125 52.8516 22.6328C52.8516 21.1641 53.9844 20.2812 56 20.1562L58.1875 20.0312V19.4375C58.1875 18.5703 57.6016 18.0703 56.6406 18.0703C55.7188 18.0703 55.1328 18.5156 55.0078 19.2031H53.2031C53.2891 17.6562 54.6094 16.5469 56.7188 16.5469C58.7734 16.5469 60.1094 17.6328 60.1094 19.2969V25H58.2344V23.6797H58.1953C57.7188 24.5781 56.6797 25.1328 55.6172 25.1328ZM56.2031 23.6641C57.3047 23.6641 58.1875 22.9297 58.1875 21.9297V21.2969L56.2734 21.4141C55.3359 21.4766 54.7969 21.8984 54.7969 22.5547C54.7969 23.2344 55.3594 23.6641 56.2031 23.6641ZM68.9766 19.6719H67.1406C66.9844 18.7891 66.3672 18.125 65.3281 18.125C64.1016 18.125 63.3125 19.1562 63.3125 20.8594C63.3125 22.5938 64.1094 23.5938 65.3438 23.5938C66.3281 23.5938 66.9688 23.0312 67.1484 22.0938H68.9844C68.8281 23.9453 67.3984 25.1641 65.3203 25.1641C62.8984 25.1641 61.3359 23.5469 61.3359 20.8594C61.3359 18.2109 62.8984 16.5469 65.3047 16.5469C67.4922 16.5469 68.8438 17.9297 68.9766 19.6719ZM72.1719 20.1719L75.2891 16.7188H77.5312L74.2188 20.2812L77.6719 25H75.4219L72.8047 21.4609L72.1484 22.125V25H70.2031V13.7266H72.1484V20.1719H72.1719Z" fill="#03060E"/>
</svg>
