<svg width="26" height="26" viewBox="0 0 26 26" fill="none" xmlns="http://www.w3.org/2000/svg">
<rect width="26" height="26" fill="white"/>
<path d="M13 10C13.5523 10 14 9.55228 14 9C14 8.44772 13.5523 8 13 8C12.4477 8 12 8.44772 12 9C12 9.55228 12.4477 10 13 10Z" fill="#565759"/>
<path d="M13 14.0002C13.5523 14.0002 14 13.5525 14 13.0002C14 12.448 13.5523 12.0002 13 12.0002C12.4477 12.0002 12 12.448 12 13.0002C12 13.5525 12.4477 14.0002 13 14.0002Z" fill="#565759"/>
<path d="M13 17.6665C13.5523 17.6665 14 17.2188 14 16.6665C14 16.1142 13.5523 15.6665 13 15.6665C12.4477 15.6665 12 16.1142 12 16.6665C12 17.2188 12.4477 17.6665 13 17.6665Z" fill="#565759"/>
</svg>
